<?xml version="1.0" standalone="no"?>
<!DOCTYPE svg PUBLIC "-//W3C//DTD SVG 20010904//EN"
 "http://www.w3.org/TR/2001/REC-SVG-20010904/DTD/svg10.dtd">
<svg version="1.0" xmlns="http://www.w3.org/2000/svg"
 width="710.000000pt" height="710.000000pt" viewBox="0 0 710.000000 710.000000"
 preserveAspectRatio="xMidYMid meet">
<metadata>
Created by potrace 1.14, written by Peter Selinger 2001-2017
</metadata>
<g transform="translate(0.000000,710.000000) scale(0.100000,-0.100000)"
fill="#000000" stroke="none">
<path d="M2734 7060 c-297 -82 -399 -148 -524 -343 -30 -47 -66 -92 -79 -99
-15 -8 -51 -12 -97 -10 -63 2 -82 -2 -139 -27 -101 -46 -209 -126 -331 -246
-125 -123 -145 -156 -194 -315 -18 -58 -41 -117 -52 -132 -46 -66 -86 -262
-73 -359 6 -45 4 -49 -79 -178 -47 -72 -86 -137 -86 -144 0 -21 -65 -209 -88
-253 -12 -23 -50 -136 -84 -250 l-63 -209 4 -265 c6 -390 5 -445 -4 -670 -7
-190 -6 -211 13 -290 12 -47 26 -132 32 -190 17 -162 36 -228 91 -324 l49 -86
0 -180 c0 -161 2 -187 24 -257 13 -43 29 -102 36 -130 7 -29 21 -64 31 -77 46
-58 52 -92 49 -256 -6 -250 -5 -270 20 -335 27 -70 116 -164 171 -180 22 -6
45 -26 67 -55 18 -25 56 -74 84 -110 28 -36 62 -89 75 -118 14 -29 26 -52 28
-50 2 2 -2 51 -9 111 l-12 107 29 0 c95 0 187 -100 200 -218 4 -29 17 -72 29
-95 25 -45 52 -56 87 -37 18 9 21 20 21 83 0 135 -36 248 -98 315 -16 17 -27
34 -24 37 3 3 26 5 50 5 55 0 101 -31 143 -98 40 -62 38 -104 -6 -172 -40 -64
-46 -111 -14 -133 20 -15 19 -16 -39 -65 -127 -105 -207 -67 -189 90 4 27 4
63 0 79 l-6 30 -18 -30 c-21 -34 -54 -46 -105 -38 -18 3 -34 4 -34 2 0 -2 16
-48 36 -103 42 -117 68 -146 191 -220 61 -36 91 -61 115 -97 71 -106 272 -245
428 -296 112 -37 152 -56 203 -97 20 -16 66 -42 101 -56 63 -25 68 -25 193
-16 145 11 219 27 313 71 128 60 229 160 270 267 17 44 17 51 4 71 -16 22 -58
29 -69 11 -3 -5 -13 -10 -22 -10 -14 0 -15 10 -10 68 4 37 18 108 33 157 45
157 66 283 73 445 l6 155 33 3 c27 3 32 0 32 -19 0 -22 0 -22 20 -4 19 17 22
17 37 3 13 -14 17 -56 24 -240 7 -211 18 -308 40 -367 l10 -26 16 33 c34 70
59 17 42 -90 -12 -76 -41 -143 -76 -180 -26 -27 -26 -29 -11 -61 26 -54 64
-93 151 -152 65 -44 112 -66 217 -101 122 -40 144 -44 230 -44 90 0 99 2 143
30 75 48 139 78 290 136 235 91 336 156 408 260 16 24 78 81 137 127 168 129
218 190 243 292 19 79 63 165 155 307 49 75 50 78 31 78 -24 0 -47 36 -47 73
0 24 16 66 45 123 32 62 48 106 56 157 5 40 12 86 15 104 6 42 58 86 134 114
82 30 100 54 100 137 0 51 6 78 29 126 59 126 106 341 96 436 -4 36 -8 97 -8
135 0 65 3 75 43 139 59 97 71 135 81 266 5 76 16 137 31 180 l23 65 -2 624
c-2 383 -6 627 -12 631 -6 3 -24 57 -41 120 -43 159 -76 252 -121 342 -25 50
-39 91 -39 116 0 25 -8 49 -21 66 -22 28 -89 186 -89 210 0 16 -56 202 -69
231 -6 11 -13 44 -17 74 l-6 54 -14 -31 c-18 -43 -52 -42 -113 2 -59 43 -105
66 -130 66 -11 0 -36 -14 -56 -32 -33 -28 -38 -30 -52 -16 -11 12 -13 26 -8
57 6 36 16 48 83 102 42 34 97 73 124 88 l48 26 0 55 c0 65 -37 152 -94 216
-49 57 -281 243 -325 261 -20 9 -65 29 -100 45 -59 28 -70 29 -136 23 l-72 -6
-47 75 c-100 160 -202 254 -316 291 -30 10 -59 24 -65 32 -18 24 -300 85 -395
85 -161 0 -266 -41 -376 -146 -73 -70 -75 -72 -88 -143 -7 -40 -11 -75 -8 -77
2 -3 19 5 36 18 17 13 41 29 54 36 22 11 23 10 13 -9 -6 -11 -11 -31 -11 -45
0 -41 -40 -150 -66 -182 -20 -25 -25 -27 -34 -14 -6 9 -8 38 -5 70 6 59 -8 52
-19 -10 -14 -76 -101 -333 -115 -338 -21 -8 -38 22 -56 97 -22 94 -22 93 -34
124 -6 16 -11 49 -11 73 0 25 -4 53 -10 63 -5 10 -23 70 -40 132 -54 200 -87
247 -210 301 -163 72 -247 75 -456 18z m2572 -601 c84 -32 104 -54 107 -117 2
-46 -2 -57 -22 -73 -29 -24 -74 -24 -128 0 -63 29 -74 53 -66 145 7 88 0 85
109 45z m-3487 -14 c36 -18 61 -79 61 -149 0 -71 15 -85 70 -63 40 15 40 15
53 -10 12 -23 11 -27 -15 -53 -15 -16 -28 -36 -28 -45 0 -10 18 -44 40 -77 44
-67 48 -83 23 -110 -26 -29 -59 -22 -108 23 -25 23 -47 40 -48 38 -2 -2 -16
-26 -32 -54 -33 -60 -70 -102 -107 -121 -26 -13 -27 -13 -37 19 -26 83 -40
232 -25 272 4 9 28 27 53 40 87 44 91 70 14 107 -62 30 -81 65 -61 116 14 39
68 82 100 82 10 0 32 -7 47 -15z m888 -51 c-3 -3 -12 -4 -19 -1 -8 3 -5 6 6 6
11 1 17 -2 13 -5z m74 -11 c13 -17 13 -17 -6 -3 -11 8 -22 16 -24 17 -2 2 0 3
6 3 6 0 17 -8 24 -17z m-178 -48 c-9 -19 -18 -33 -21 -31 -4 5 26 66 33 66 3
0 -3 -16 -12 -35z m208 8 c13 -16 12 -17 -3 -4 -10 7 -18 15 -18 17 0 8 8 3
21 -13z m34 -43 c10 -11 16 -20 13 -20 -3 0 -13 9 -23 20 -10 11 -16 20 -13
20 3 0 13 -9 23 -20z m-108 -55 c-7 -13 -14 -20 -15 -14 -2 5 2 16 8 24 18 21
20 18 7 -10z m154 -1 c17 -18 19 -23 6 -18 -9 3 -17 10 -17 15 0 5 -3 8 -7 8
-17 -3 -24 2 -18 11 8 13 8 14 36 -16z m2255 1 c139 -34 151 -45 132 -125
l-12 -52 -40 5 c-34 5 -48 15 -86 59 -24 29 -60 67 -78 85 -31 29 -32 32 -15
42 10 6 25 8 33 4 8 -3 38 -11 66 -18z m-2475 -142 c13 -16 12 -17 -3 -4 -10
7 -18 15 -18 17 0 8 8 3 21 -13z m54 -63 c3 -6 -1 -7 -9 -4 -18 7 -21 14 -7
14 6 0 13 -4 16 -10z m68 -11 c-6 -6 -21 -9 -34 -6 -22 4 -22 4 4 6 15 0 27 6
27 13 0 6 3 8 7 5 4 -4 2 -12 -4 -18z m-1173 -1237 c0 -4 12 -22 28 -39 25
-30 34 -33 142 -48 63 -9 117 -19 119 -21 11 -11 -15 -16 -105 -20 -55 -2
-117 -7 -139 -10 -42 -5 -85 -37 -85 -63 -1 -9 -10 6 -20 33 -11 27 -28 59
-40 71 -26 27 -25 31 6 72 20 26 32 33 60 33 18 0 34 -4 34 -8z m4418 -224 c2
-52 -1 -88 -7 -88 -5 0 -16 -3 -25 -6 -14 -5 -16 6 -16 91 0 94 0 96 23 93 21
-3 22 -8 25 -90z m-1159 -174 c1 -57 -13 -76 -86 -113 -47 -23 -73 -55 -73
-87 0 -28 -66 -84 -97 -84 -20 0 -23 5 -23 36 0 55 27 100 97 162 35 31 87 87
116 125 51 68 52 68 58 40 4 -15 7 -51 8 -79z m-2935 68 c3 -5 -1 -9 -9 -9 -8
0 -15 4 -15 9 0 4 4 8 9 8 6 0 12 -4 15 -8z m26 -57 c0 -5 -5 -3 -10 5 -5 8
-10 20 -10 25 0 6 5 3 10 -5 5 -8 10 -19 10 -25z m377 -11 c-3 -3 -12 -4 -19
-1 -8 3 -5 6 6 6 11 1 17 -2 13 -5z m66 -1 c-7 -2 -19 -2 -25 0 -7 3 -2 5 12
5 14 0 19 -2 13 -5z m-432 -12 c0 -3 2 -14 4 -24 4 -20 -11 -13 -24 12 -7 13
-6 18 5 18 7 0 14 -3 15 -6z m284 -11 c-11 -5 -27 -9 -35 -9 -9 0 -8 4 5 9 11
5 27 9 35 9 9 0 8 -4 -5 -9z m236 -17 c13 -16 12 -17 -3 -4 -10 7 -18 15 -18
17 0 8 8 3 21 -13z m-476 -11 c-3 -3 -11 0 -18 7 -9 10 -8 11 6 5 10 -3 15 -9
12 -12z m182 12 c-3 -3 -12 -4 -19 -1 -8 3 -5 6 6 6 11 1 17 -2 13 -5z m-568
-38 c43 -29 94 -46 173 -58 15 -3 16 -6 5 -28 -9 -18 -22 -26 -47 -28 -58 -6
-142 18 -178 50 -42 36 -55 28 -76 -47 -9 -29 -24 -62 -33 -74 -18 -21 -18
-21 -55 36 -76 114 -38 181 103 182 49 1 64 -4 108 -33z m469 17 c-10 -2 -28
-2 -40 0 -13 2 -5 4 17 4 22 1 32 -1 23 -4z m433 -10 c13 -16 12 -17 -3 -4
-10 7 -18 15 -18 17 0 8 8 3 21 -13z m-511 -28 c13 -14 21 -25 18 -25 -2 0
-15 11 -28 25 -13 14 -21 25 -18 25 2 0 15 -11 28 -25z m480 -9 c0 -2 -7 -7
-16 -10 -8 -3 -12 -2 -9 4 6 10 25 14 25 6z m63 -3 c-7 -2 -21 -2 -30 0 -10 3
-4 5 12 5 17 0 24 -2 18 -5z m-478 -43 c10 -11 16 -20 13 -20 -3 0 -13 9 -23
20 -10 11 -16 20 -13 20 3 0 13 -9 23 -20z m372 -27 c-3 -10 -5 -2 -5 17 0 19
2 27 5 18 2 -10 2 -26 0 -35z m-256 -50 c13 -16 12 -17 -3 -4 -17 13 -22 21
-14 21 2 0 10 -8 17 -17z m269 7 c0 -5 -17 -9 -37 -9 l-38 2 35 7 c19 4 36 8
38 9 1 0 2 -3 2 -9z m-811 -220 c11 -6 -12 -9 -75 -10 -63 0 -96 -4 -110 -15
-18 -13 -18 -15 -2 -45 l18 -31 -87 3 c-53 2 -88 7 -90 14 -5 15 54 52 131 81
50 19 73 22 130 18 38 -3 76 -10 85 -15z m43 -264 c-2 -19 4 -51 14 -71 9 -20
15 -38 12 -40 -2 -2 -27 3 -56 11 -74 22 -86 17 -92 -36 -5 -44 -5 -45 -42
-44 -64 2 -68 6 -68 79 0 70 3 78 57 163 l34 53 72 -39 c70 -39 72 -41 69 -76z
m3867 -21 c12 -12 16 -38 16 -109 1 -92 0 -94 -19 -80 -29 20 -69 17 -99 -6
l-26 -21 -38 20 c-21 11 -50 28 -65 38 l-27 19 34 18 c23 13 39 33 54 67 15
37 29 53 53 64 38 18 95 13 117 -10z m-1392 -507 c-2 -24 -4 -7 -4 37 0 44 2
63 4 43 2 -21 2 -57 0 -80z m-2467 -50 c-2 -44 -93 -208 -115 -208 -19 0 -35
23 -35 52 0 53 26 96 82 132 59 39 68 42 68 24z m1013 -304 c16 -60 17 -79 7
-147 -16 -111 -63 -259 -100 -317 -18 -28 -55 -78 -82 -113 l-50 -62 6 -66 c7
-73 3 -79 -54 -79 -15 0 -61 -15 -101 -33 l-74 -33 -125 6 c-121 6 -155 15
-192 48 -29 25 -21 46 25 69 31 15 56 20 88 16 26 -3 78 4 129 16 76 18 87 19
107 6 14 -9 23 -25 23 -40 0 -30 -1 -29 50 -9 41 17 49 31 28 52 -9 9 7 30 69
91 45 44 94 101 109 127 29 49 32 82 24 211 -2 32 4 53 30 94 29 48 31 56 21
89 -6 21 -11 53 -11 71 0 38 25 82 43 76 6 -2 20 -35 30 -73z m1676 -32 c28
-56 40 -106 61 -276 11 -84 24 -166 30 -181 6 -15 9 -29 8 -30 -2 -2 -22 14
-45 34 -38 34 -43 45 -62 127 -25 110 -41 227 -41 303 0 83 15 90 49 23z
m-735 -192 c50 0 109 -57 81 -80 -11 -9 -31 -5 -95 21 -44 18 -80 38 -80 44 0
6 7 21 16 34 l16 22 22 -20 c12 -12 30 -21 40 -21z m-2006 -69 c20 -11 80 -54
132 -95 118 -94 185 -129 261 -134 l58 -4 -15 -30 c-8 -16 -21 -27 -27 -25
-121 52 -219 98 -289 138 -70 41 -94 61 -128 110 -23 32 -39 59 -35 59 3 0 22
-9 43 -19z m4306 -41 c-2 -64 -27 -140 -46 -140 -23 0 -23 13 2 91 11 35 18
69 15 77 -3 9 1 12 13 10 12 -3 17 -13 16 -38z m-227 -178 c-6 -22 -7 -46 -4
-55 7 -19 42 -22 80 -8 22 9 24 7 19 -17 -14 -75 -78 -118 -160 -108 l-54 6 7
-66 c6 -63 6 -66 -10 -51 -30 31 -95 12 -95 -28 0 -19 -56 -38 -96 -32 -20 3
-51 19 -70 34 -115 93 -115 93 -157 93 -23 0 -87 -16 -142 -36 -151 -53 -209
-49 -251 17 -14 22 -32 43 -40 46 -17 6 -64 -33 -64 -54 0 -10 -10 -8 -37 7
-21 11 -50 20 -66 20 -27 0 -27 1 -13 22 18 26 13 56 -21 116 -36 61 -8 56 75
-14 87 -74 124 -90 174 -75 21 7 42 21 48 31 14 25 31 25 81 -1 30 -15 51 -19
77 -14 27 4 48 0 77 -15 60 -31 139 -27 280 15 65 19 120 37 123 40 5 4 -2 21
-36 86 -1 3 19 4 45 2 62 -6 120 10 169 46 21 16 46 30 55 30 14 1 15 -4 6
-37z m-4410 -68 c33 -13 105 -31 160 -39 194 -30 340 -72 361 -103 l14 -21
-69 19 c-253 73 -295 82 -388 76 -49 -2 -102 -8 -116 -11 -24 -6 -28 -3 -42
37 -8 23 -18 51 -22 62 -9 21 1 19 102 -20z m1562 -396 c1 -108 -25 -277 -65
-422 -30 -109 -43 -132 -69 -123 -15 6 -17 18 -13 80 3 54 13 94 42 162 49
119 57 183 26 236 -27 49 -25 63 27 218 l38 115 7 -85 c3 -46 6 -127 7 -181z
m2345 -214 c53 -11 84 -23 101 -40 13 -13 34 -24 45 -24 35 0 58 -18 58 -44 0
-21 -4 -24 -27 -20 -94 16 -164 24 -214 24 -54 0 -58 2 -52 20 8 24 -17 27
-55 5 -60 -34 -68 0 -13 57 42 43 51 44 157 22z m-2322 -161 c9 -3 19 -15 22
-26 7 -28 6 -173 -3 -257 -8 -78 -11 -69 -41 120 -12 74 -24 146 -27 159 -5
21 -3 23 13 17 10 -5 26 -10 36 -13z m-634 -273 c22 -46 28 -130 13 -195 -7
-30 -7 -29 -24 20 -29 86 -48 196 -54 314 -6 105 -5 115 13 128 18 13 19 10
25 -104 4 -92 10 -128 27 -163z m2574 115 l8 -130 -40 -120 c-22 -66 -49 -133
-60 -150 l-20 -30 0 30 c0 47 27 148 60 228 l31 73 -15 68 c-9 37 -16 90 -16
117 0 47 2 50 23 47 21 -3 22 -8 29 -133z m533 -37 c19 0 11 -13 -54 -77 -101
-99 -134 -165 -135 -266 l-1 -73 -41 -20 c-64 -32 -73 -20 -105 142 -39 196
-32 215 101 270 77 33 91 35 148 30 35 -4 74 -6 87 -6z"/>
<path d="M5930 1663 c0 -92 13 -123 30 -78 21 54 23 91 6 123 -26 51 -36 38
-36 -45z"/>
<path d="M5826 1426 c-32 -36 -49 -46 -73 -46 -17 0 -35 -6 -41 -12 -11 -14
-22 -138 -12 -138 3 0 26 13 51 29 59 38 124 108 143 153 14 36 14 38 -5 49
-18 9 -26 4 -63 -35z"/>
<path d="M3551 1183 c0 -12 -4 -30 -7 -40 -5 -17 -5 -17 6 0 6 10 9 28 7 40
-4 22 -4 22 -6 0z"/>
<path d="M3540 730 c-7 -32 -35 -292 -31 -295 2 -3 22 -5 43 -5 l39 0 -5 48
c-3 26 -8 81 -12 122 -3 41 -12 89 -19 105 -7 17 -14 28 -15 25z"/>
</g>
</svg>
